# xmcd CD database file
#
# Track frame offsets:
#	150
#	19800
#	34200
#	48450
#	63300
#	76425
#	91125
#	105900
#	119850
#	132675
#	147600
#	162975
#	176400
#	189975
#	204450
#	218922
#	233547
#
# Disc length: 3283 seconds
#
# Revision: 0
# Processed by: cddbd v1.5.1PL2 Copyright (c) Steve Scherf et al.
# Submitted via: CDex 1.51
#
DISCID=f20cd111
DTITLE=Various Artist - Midnight Jazz
DYEAR=2003
DGENRE=Jazz
TTITLE0=Long Long Journej
TTITLE1=Smooth Sailing
TTITLE2=Until The Real Time Thing Comes Along
TTITLE3=Sentimental Journej
TTITLE4=Amor
TTITLE5=Smoke Get In Your Eyes
TTITLE6=I'm Begining to See The Light
TTITLE7=Lotus Blossom
TTITLE8=Dream A Little Dream Of Me
TTITLE9=I Got It Bad And That Ain't Good
TTITLE10=How Long Has This Been Going On
TTITLE11=Don't Let The Sun Catch Your Crying
TTITLE12=Till The End Of Time
TTITLE13=Some Day
TTITLE14=Slue And Sentimental
TTITLE15=Candy
TTITLE16=It's All Up To You
EXTD=YEAR: 2003
EXTT0=
EXTT1=
EXTT2=
EXTT3=
EXTT4=
EXTT5=
EXTT6=
EXTT7=
EXTT8=
EXTT9=
EXTT10=
EXTT11=
EXTT12=
EXTT13=
EXTT14=
EXTT15=
EXTT16=
PLAYORDER=
